<?xml version="1.0" encoding="iso-8859-1"?>
<!-- Generator: Adobe Illustrator 16.0.0, SVG Export Plug-In . SVG Version: 6.00 Build 0)  -->
<!DOCTYPE svg PUBLIC "-//W3C//DTD SVG 1.1//EN" "http://www.w3.org/Graphics/SVG/1.1/DTD/svg11.dtd">
<svg version="1.1" id="Capa_1" xmlns="http://www.w3.org/2000/svg" xmlns:xlink="http://www.w3.org/1999/xlink" x="0px" y="0px"
	 width="512px" height="512px" viewBox="0 0 512 512" style="enable-background:new 0 0 512 512;" xml:space="preserve">
<g>
	<path d="M151.961,418.005c13.572,0,26.893-6.567,34.986-18.708c12.867-19.301,7.651-45.377-11.649-58.244l-33.037-22.022
		c5.654-1.54,11.597-2.38,17.739-2.38c37.196,0,67.348,30.152,67.348,67.351s-30.153,67.349-67.349,67.349
		c-36.202,0-65.722-28.564-67.274-64.387l35.977,23.984C135.863,415.721,143.955,418.005,151.961,418.005z M426.67,0
		C473.607,0,512,38.406,512,85.344v341.314C512,473.626,473.607,512,426.67,512H85.344C38.406,512,0,473.625,0,426.659V325.145
		l60.667,40.444c-5.826,31.587,3.469,65.415,27.899,89.845c39.452,39.452,103.415,39.452,142.868,0
		c24.234-24.231,33.575-57.715,28.039-89.082L384,254.858v-0.001c23.123-3.319,45.408-13.872,63.197-31.661
		c43.736-43.738,43.736-114.653,0-158.392c-43.74-43.739-114.654-43.739-158.393,0c-17.789,17.789-28.344,40.073-31.662,63.196l0,0
		L154.796,283.115c-15.924,0.816-31.689,5.382-45.863,13.695L0,224.189V85.344C0,38.406,38.405,0,85.343,0H426.67z M448,144
		c0-44.183-35.816-80-80-80s-80,35.817-80,80s35.816,80,80,80S448,188.183,448,144z M320,144c0-26.51,21.49-48,48-48s48,21.49,48,48
		s-21.49,48-48,48S320,170.51,320,144z"/>
</g>
<g>
</g>
<g>
</g>
<g>
</g>
<g>
</g>
<g>
</g>
<g>
</g>
<g>
</g>
<g>
</g>
<g>
</g>
<g>
</g>
<g>
</g>
<g>
</g>
<g>
</g>
<g>
</g>
<g>
</g>
</svg>
